<svg width="13" height="13" viewBox="0 0 13 13" fill="none" xmlns="http://www.w3.org/2000/svg">
<path d="M1.06069 2.27106C1.20158 1.67043 1.67055 1.20146 2.27118 1.06057C2.7917 0.93847 3.33341 0.93847 3.85393 1.06057C4.45456 1.20146 4.92354 1.67043 5.06443 2.27106C5.18652 2.79158 5.18652 3.33329 5.06443 3.85381C4.92354 4.45444 4.45456 4.92342 3.85393 5.0643C3.33341 5.1864 2.7917 5.1864 2.27118 5.0643C1.67055 4.92342 1.20158 4.45444 1.06069 3.85381C0.938592 3.33329 0.938592 2.79158 1.06069 2.27106Z" stroke="#575757" stroke-width="1.25"/>
<path d="M1.06069 9.14606C1.20158 8.54543 1.67055 8.07646 2.27118 7.93557C2.7917 7.81347 3.33341 7.81347 3.85393 7.93557C4.45456 8.07646 4.92354 8.54543 5.06443 9.14606C5.18652 9.66658 5.18652 10.2083 5.06443 10.7288C4.92354 11.3294 4.45456 11.7984 3.85393 11.9393C3.33341 12.0614 2.7917 12.0614 2.27118 11.9393C1.67055 11.7984 1.20158 11.3294 1.06069 10.7288C0.938592 10.2083 0.938592 9.66658 1.06069 9.14606Z" stroke="#575757" stroke-width="1.25"/>
<path d="M7.93569 2.27106C8.07658 1.67043 8.54555 1.20146 9.14618 1.06057C9.6667 0.93847 10.2084 0.93847 10.7289 1.06057C11.3296 1.20146 11.7985 1.67043 11.9394 2.27106C12.0615 2.79158 12.0615 3.33329 11.9394 3.85381C11.7985 4.45444 11.3296 4.92342 10.7289 5.0643C10.2084 5.1864 9.6667 5.1864 9.14618 5.0643C8.54555 4.92342 8.07658 4.45444 7.93569 3.85381C7.81359 3.33329 7.81359 2.79158 7.93569 2.27106Z" stroke="#575757" stroke-width="1.25"/>
<path d="M7.93569 9.14606C8.07658 8.54543 8.54555 8.07646 9.14618 7.93557C9.6667 7.81347 10.2084 7.81347 10.7289 7.93557C11.3296 8.07646 11.7985 8.54543 11.9394 9.14606C12.0615 9.66658 12.0615 10.2083 11.9394 10.7288C11.7985 11.3294 11.3296 11.7984 10.7289 11.9393C10.2084 12.0614 9.6667 12.0614 9.14618 11.9393C8.54555 11.7984 8.07658 11.3294 7.93569 10.7288C7.81359 10.2083 7.81359 9.66658 7.93569 9.14606Z" stroke="#575757" stroke-width="1.25"/>
</svg>
