<svg width="17" height="16" viewBox="0 0 17 16" fill="none" xmlns="http://www.w3.org/2000/svg">
<g filter="url(#filter0_d_259_704)">
<path d="M5.83124 1.14212C5.20103 0.994294 4.54517 0.994294 3.91497 1.14212C3.08958 1.33573 2.44511 1.9802 2.25149 2.80559C2.10367 3.4358 2.10367 4.09166 2.25149 4.72186C2.44511 5.54726 3.08958 6.19173 3.91497 6.38534C4.54517 6.53316 5.20103 6.53316 5.83124 6.38534C6.65663 6.19173 7.3011 5.54725 7.49471 4.72186C7.64254 4.09166 7.64254 3.4358 7.49471 2.80559C7.3011 1.9802 6.65663 1.33573 5.83124 1.14212Z" fill="#0079BD"/>
<path d="M5.83124 8.47404C5.20103 8.32621 4.54517 8.32621 3.91497 8.47404C3.08958 8.66765 2.44511 9.31212 2.25149 10.1375C2.10367 10.7677 2.10367 11.4236 2.25149 12.0538C2.44511 12.8792 3.08958 13.5236 3.91497 13.7173C4.54517 13.8651 5.20103 13.8651 5.83124 13.7173C6.65663 13.5236 7.3011 12.8792 7.49471 12.0538C7.64254 11.4236 7.64254 10.7677 7.49471 10.1375C7.3011 9.31212 6.65663 8.66765 5.83124 8.47404Z" fill="#0079BD"/>
<path d="M13.1632 1.14212C12.533 0.994294 11.8771 0.994294 11.2469 1.14212C10.4215 1.33573 9.77703 1.9802 9.58341 2.80559C9.43559 3.4358 9.43559 4.09166 9.58341 4.72186C9.77703 5.54726 10.4215 6.19173 11.2469 6.38534C11.8771 6.53316 12.533 6.53316 13.1632 6.38534C13.9885 6.19173 14.633 5.54725 14.8266 4.72186C14.9745 4.09166 14.9745 3.4358 14.8266 2.80559C14.633 1.9802 13.9885 1.33573 13.1632 1.14212Z" fill="#0079BD"/>
<path d="M13.1632 8.47404C12.533 8.32621 11.8771 8.32621 11.2469 8.47404C10.4215 8.66765 9.77703 9.31212 9.58341 10.1375C9.43559 10.7677 9.43559 11.4236 9.58341 12.0538C9.77703 12.8792 10.4215 13.5236 11.2469 13.7173C11.8771 13.8651 12.533 13.8651 13.1632 13.7173C13.9885 13.5236 14.633 12.8792 14.8266 12.0538C14.9745 11.4236 14.9745 10.7677 14.8266 10.1375C14.633 9.31212 13.9885 8.66765 13.1632 8.47404Z" fill="#0079BD"/>
</g>
<defs>
<filter id="filter0_d_259_704" x="0.71875" y="0.320312" width="15.6406" height="15.6406" filterUnits="userSpaceOnUse" color-interpolation-filters="sRGB">
<feFlood flood-opacity="0" result="BackgroundImageFix"/>
<feColorMatrix in="SourceAlpha" type="matrix" values="0 0 0 0 0 0 0 0 0 0 0 0 0 0 0 0 0 0 127 0" result="hardAlpha"/>
<feOffset dy="0.710938"/>
<feGaussianBlur stdDeviation="0.710938"/>
<feComposite in2="hardAlpha" operator="out"/>
<feColorMatrix type="matrix" values="0 0 0 0 0.541667 0 0 0 0 0.835 0 0 0 0 1 0 0 0 0.5 0"/>
<feBlend mode="normal" in2="BackgroundImageFix" result="effect1_dropShadow_259_704"/>
<feBlend mode="normal" in="SourceGraphic" in2="effect1_dropShadow_259_704" result="shape"/>
</filter>
</defs>
</svg>
