<svg width="14" height="15" viewBox="0 0 14 15" fill="none" xmlns="http://www.w3.org/2000/svg">
<path d="M8.58611 1.84911L9.01868 2.28168L9.01868 2.28168L8.58611 1.84911ZM5.39128 5.04394L5.82385 5.47651L5.82385 5.47651L5.39128 5.04394ZM11.5519 4.81495L11.1194 4.38238L11.1194 4.38238L11.5519 4.81495ZM8.35712 8.00978L7.92454 7.57721L7.92454 7.57721L8.35712 8.00978ZM3.32232 10.8604L3.17395 10.2669L3.17395 10.2669L3.32232 10.8604ZM2.70483 11.0148L2.8532 11.6083L2.8532 11.6083L2.70483 11.0148ZM2.38625 10.6962L2.97974 10.8446L2.97974 10.8446L2.38625 10.6962ZM2.54062 10.0787L3.13411 10.2271L3.13411 10.2271L2.54062 10.0787ZM11.1361 6.00457C11.4567 5.89772 11.6299 5.55128 11.5231 5.23075C11.4162 4.91023 11.0698 4.73701 10.7492 4.84385L11.1361 6.00457ZM8.55721 2.65182C8.66405 2.3313 8.49083 1.98485 8.1703 1.87801C7.84978 1.77117 7.50333 1.94439 7.39649 2.26491L8.55721 2.65182ZM12.9819 14.8973C13.3197 14.8973 13.5936 14.6234 13.5936 14.2856C13.5936 13.9477 13.3197 13.6738 12.9819 13.6738V14.8973ZM1.5625 13.6738C1.22464 13.6738 0.950748 13.9477 0.950748 14.2856C0.950748 14.6234 1.22464 14.8973 1.5625 14.8973V13.6738ZM8.15353 1.41654L4.9587 4.61137L5.82385 5.47651L9.01868 2.28168L8.15353 1.41654ZM11.1194 4.38238L7.92454 7.57721L8.78969 8.44235L11.9845 5.24752L11.1194 4.38238ZM3.17395 10.2669L2.55646 10.4213L2.8532 11.6083L3.4707 11.4539L3.17395 10.2669ZM2.97974 10.8446L3.13411 10.2271L1.94714 9.93036L1.79277 10.5479L2.97974 10.8446ZM2.55646 10.4213C2.8121 10.3574 3.04365 10.589 2.97974 10.8446L1.79277 10.5479C1.63266 11.1883 2.21276 11.7684 2.8532 11.6083L2.55646 10.4213ZM7.92454 7.57721C6.61402 8.88773 4.97197 9.81744 3.17395 10.2669L3.4707 11.4539C5.48385 10.9506 7.32237 9.90968 8.78969 8.44235L7.92454 7.57721ZM4.9587 4.61137C3.49138 6.07869 2.45043 7.91721 1.94714 9.93036L3.13411 10.2271C3.58362 8.42909 4.51333 6.78703 5.82385 5.47651L4.9587 4.61137ZM10.069 0.623112C9.35058 0.623112 8.66155 0.908515 8.15353 1.41654L9.01868 2.28168C9.29725 2.00311 9.67507 1.84661 10.069 1.84661V0.623112ZM11.5544 3.33203C11.5544 3.72599 11.3979 4.10381 11.1194 4.38238L11.9845 5.24752C12.4925 4.7395 12.7779 4.05048 12.7779 3.33203H11.5544ZM12.7779 3.33203C12.7779 1.83594 11.5651 0.623112 10.069 0.623112V1.84661C10.8894 1.84661 11.5544 2.51166 11.5544 3.33203H12.7779ZM10.7492 4.84385C10.3213 4.98649 9.68896 4.78824 9.15089 4.25017C8.61281 3.7121 8.41457 3.07973 8.55721 2.65182L7.39649 2.26491C7.04482 3.31992 7.58804 4.41763 8.28574 5.11532C8.98343 5.81302 10.0811 6.35624 11.1361 6.00457L10.7492 4.84385ZM12.9819 13.6738H1.5625V14.8973H12.9819V13.6738Z" fill="#575757"/>
</svg>
