<svg width="15" height="14" viewBox="0 0 15 14" fill="none" xmlns="http://www.w3.org/2000/svg">
<path d="M6.93648 5.31467H7.10764V6.35516L6.81959 6.25085C6.66633 6.19536 6.532 6.0227 6.532 5.79313C6.532 5.49292 6.74768 5.31467 6.93648 5.31467Z" fill="#0079BD"/>
<path d="M7.97086 8.62275V7.58238L8.25861 7.68657C8.41187 7.74207 8.54619 7.91473 8.54619 8.1443C8.54619 8.44451 8.33051 8.62275 8.14171 8.62275H7.97086Z" fill="#0079BD"/>
<path fill-rule="evenodd" clip-rule="evenodd" d="M5.38433 0.805135C6.80362 0.492038 8.27452 0.492038 9.6938 0.805136L9.99069 0.870631C11.9729 1.30791 13.5356 2.82495 14.025 4.78702C14.3823 6.21974 14.3823 7.71776 14.025 9.15048C13.5356 11.1126 11.9729 12.6296 9.99069 13.0669L9.6938 13.1324C8.27451 13.4455 6.80361 13.4455 5.38433 13.1324L5.08743 13.0669C3.10525 12.6296 1.54254 11.1126 1.05317 9.15049C0.695819 7.71776 0.695819 6.21974 1.05317 4.78702C1.54254 2.82495 3.10525 1.30791 5.08743 0.870632L5.38433 0.805135ZM7.97086 4.10347C7.97086 3.8661 7.77762 3.67368 7.53925 3.67368C7.30088 3.67368 7.10764 3.8661 7.10764 4.10347V4.45509H6.93648C6.20177 4.45509 5.66878 5.09012 5.66878 5.79313C5.66878 6.34543 5.99503 6.86693 6.52459 7.05868L7.10764 7.26981V8.62275H7.05953C6.80277 8.62275 6.532 8.38466 6.532 8.01063C6.532 7.77326 6.33877 7.58084 6.10039 7.58084C5.86202 7.58084 5.66878 7.77326 5.66878 8.01063C5.66878 8.78746 6.25686 9.48233 7.05953 9.48233H7.10764V9.834C7.10764 10.0714 7.30088 10.2638 7.53925 10.2638C7.77762 10.2638 7.97086 10.0714 7.97086 9.834V9.48233H8.14171C8.87642 9.48233 9.40941 8.84731 9.40941 8.1443C9.40941 7.592 9.08316 7.0705 8.55361 6.87875L7.97086 6.66773V5.31467H8.01866C8.27542 5.31467 8.54619 5.55276 8.54619 5.9268C8.54619 6.16416 8.73943 6.35659 8.9778 6.35659C9.21617 6.35659 9.40941 6.16416 9.40941 5.9268C9.40941 5.14996 8.82133 4.45509 8.01866 4.45509H7.97086V4.10347Z" fill="#0079BD"/>
</svg>
