<svg width="15" height="15" viewBox="0 0 15 15" fill="none" xmlns="http://www.w3.org/2000/svg">
<path fill-rule="evenodd" clip-rule="evenodd" d="M11.0808 10.429C11.5552 10.3586 12.1663 10.3449 13.0051 10.3425C12.4085 11.7892 11.1462 12.8816 9.59184 13.2462L9.58829 13.247C9.59603 12.6435 9.61766 12.1782 9.67673 11.8022C9.75401 11.3104 9.88619 11.0387 10.0835 10.8414C10.2855 10.6394 10.5656 10.5055 11.0808 10.429ZM9.85145 0.647095C8.30481 0.284302 6.69519 0.284302 5.14855 0.647095C2.915 1.17102 1.17102 2.91499 0.647096 5.14855C0.284301 6.69519 0.284301 8.30481 0.647096 9.85145C1.17102 12.085 2.915 13.829 5.14855 14.3529C6.44763 14.6576 7.79113 14.7064 9.10442 14.4992C9.3547 14.4598 9.60388 14.411 9.85145 14.3529C12.085 13.829 13.829 12.085 14.3529 9.85145C14.7157 8.30481 14.7157 6.69519 14.3529 5.14855C13.829 2.915 12.085 1.17102 9.85145 0.647095ZM4.77171 5.22642C4.77171 4.97529 4.9753 4.77171 5.22642 4.77171H7.49998C7.75111 4.77171 7.95469 4.97529 7.95469 5.22642C7.95469 5.47755 7.75111 5.68114 7.49998 5.68114H5.22642C4.9753 5.68114 4.77171 5.47755 4.77171 5.22642ZM4.77171 7.49998C4.77171 7.24885 4.9753 7.04527 5.22642 7.04527H9.01568C9.26681 7.04527 9.47039 7.24885 9.47039 7.49998C9.47039 7.75111 9.26681 7.95469 9.01568 7.95469H5.22642C4.9753 7.95469 4.77171 7.75111 4.77171 7.49998Z" fill="#0079BD"/>
</svg>
