<svg width="15" height="15" viewBox="0 0 15 15" fill="none" xmlns="http://www.w3.org/2000/svg">
<path d="M1.3915 9.78803L1.91006 9.66394L1.3915 9.78803ZM1.3915 5.53751L1.91006 5.66159L1.3915 5.53751ZM13.6866 5.53751L13.1681 5.6616L13.6866 5.53751ZM13.6866 9.78802L13.1681 9.66393L13.6866 9.78802ZM9.70711 13.689L9.58763 13.1693L9.70711 13.689ZM5.37101 13.689L5.25153 14.2086L5.37101 13.689ZM5.37101 1.63655L5.4905 2.15619L5.4905 2.15619L5.37101 1.63655ZM9.70712 1.63655L9.58763 2.15619L9.58763 2.15619L9.70712 1.63655ZM8.485 14.1875C8.485 14.482 8.72372 14.7207 9.0182 14.7207C9.31268 14.7207 9.5514 14.482 9.5514 14.1875H8.485ZM13.4556 10.3709C13.7501 10.3709 13.9888 10.1322 13.9888 9.83768C13.9888 9.5432 13.7501 9.30447 13.4556 9.30447V10.3709ZM5.40625 5.12305C5.11177 5.12305 4.87305 5.36177 4.87305 5.65625C4.87305 5.95073 5.11177 6.18945 5.40625 6.18945V5.12305ZM7.53906 6.18945C7.83354 6.18945 8.07227 5.95073 8.07227 5.65625C8.07227 5.36177 7.83354 5.12305 7.53906 5.12305V6.18945ZM5.40625 7.25586C5.11177 7.25586 4.87305 7.49458 4.87305 7.78906C4.87305 8.08354 5.11177 8.32227 5.40625 8.32227V7.25586ZM8.96094 8.32227C9.25542 8.32227 9.49414 8.08354 9.49414 7.78906C9.49414 7.49458 9.25542 7.25586 8.96094 7.25586V8.32227ZM1.91006 9.66394C1.59508 8.34764 1.59508 6.97789 1.91006 5.66159L0.872936 5.41342C0.518917 6.89286 0.518917 8.43267 0.872936 9.91211L1.91006 9.66394ZM13.1681 5.6616C13.483 6.97789 13.483 8.34764 13.1681 9.66393L14.2052 9.91211C14.5592 8.43267 14.5592 6.89286 14.2052 5.41342L13.1681 5.6616ZM9.58763 13.1693C8.24025 13.4792 6.83788 13.4792 5.4905 13.1693L5.25153 14.2086C6.75617 14.5546 8.32195 14.5546 9.8266 14.2086L9.58763 13.1693ZM5.4905 2.15619C6.83788 1.84637 8.24025 1.84637 9.58763 2.15619L9.8266 1.1169C8.32196 0.770928 6.75617 0.770928 5.25153 1.1169L5.4905 2.15619ZM5.4905 13.1693C3.70873 12.7596 2.32504 11.3981 1.91006 9.66394L0.872936 9.91211C1.38431 12.0491 3.08414 13.7103 5.25153 14.2086L5.4905 13.1693ZM9.8266 14.2086C11.994 13.7103 13.6938 12.0491 14.2052 9.91211L13.1681 9.66393C12.7531 11.3981 11.3694 12.7596 9.58763 13.1693L9.8266 14.2086ZM9.58763 2.15619C11.3694 2.56588 12.7531 3.92741 13.1681 5.6616L14.2052 5.41342C13.6938 3.27641 11.994 1.61527 9.8266 1.1169L9.58763 2.15619ZM5.25153 1.1169C3.08414 1.61527 1.38431 3.2764 0.872936 5.41342L1.91006 5.66159C2.32504 3.92741 3.70873 2.56588 5.4905 2.15619L5.25153 1.1169ZM9.5514 14.1875C9.5514 13.1469 9.55258 12.4211 9.62769 11.8735C9.70054 11.3423 9.83382 11.0588 10.0413 10.8555L9.29479 10.0939C8.85242 10.5276 8.66078 11.0752 8.57117 11.7286C8.48382 12.3655 8.485 13.1776 8.485 14.1875H9.5514ZM13.4556 9.30447C12.4245 9.30447 11.5986 9.30338 10.9514 9.38867C10.29 9.47584 9.73568 9.66174 9.29479 10.0939L10.0413 10.8555C10.2503 10.6506 10.5438 10.518 11.0908 10.4459C11.652 10.372 12.3949 10.3709 13.4556 10.3709V9.30447ZM5.40625 6.18945H7.53906V5.12305H5.40625V6.18945ZM5.40625 8.32227H8.96094V7.25586H5.40625V8.32227Z" fill="#575757"/>
</svg>
