<svg width="20" height="20" viewBox="0 0 20 20" fill="none" xmlns="http://www.w3.org/2000/svg">
<path d="M11.7678 8.23223L10 10M10 10L8.23223 11.7678M10 10L11.7678 11.7678M10 10L8.23223 8.23223M1.35288 13.0496C0.882374 11.0437 0.882374 8.95626 1.35288 6.95043C2.00437 4.17301 4.17301 2.00437 6.95043 1.35288C8.95626 0.882375 11.0437 0.882374 13.0496 1.35288C15.827 2.00437 17.9956 4.17301 18.6471 6.95044C19.1176 8.95626 19.1176 11.0437 18.6471 13.0496C17.9956 15.827 15.827 17.9956 13.0496 18.6471C11.0437 19.1176 8.95626 19.1176 6.95044 18.6471C4.17301 17.9956 2.00437 15.827 1.35288 13.0496Z" stroke="#7C7C7C" stroke-width="1.5" stroke-linecap="round"/>
</svg>
