<svg width="15" height="15" viewBox="0 0 15 15" fill="none" xmlns="http://www.w3.org/2000/svg">
<path fill-rule="evenodd" clip-rule="evenodd" d="M6.075 13.2C6.075 13.987 6.71299 14.625 7.5 14.625C8.287 14.625 8.925 13.987 8.925 13.2V12.281C9.2567 12.1822 9.57393 12.0499 9.87276 11.888L10.5229 12.5381C11.0794 13.0946 11.9816 13.0946 12.5381 12.5381C13.0946 11.9816 13.0946 11.0794 12.5381 10.5229L11.888 9.87276C12.0499 9.57393 12.1822 9.2567 12.281 8.925H13.2C13.987 8.925 14.625 8.28701 14.625 7.5C14.625 6.713 13.987 6.075 13.2 6.075H12.281C12.1822 5.7433 12.0499 5.42607 11.888 5.12723L12.5381 4.47712C13.0946 3.92063 13.0946 3.01837 12.5381 2.46187C11.9816 1.90537 11.0794 1.90537 10.5229 2.46187L9.87276 3.11198C9.57393 2.95005 9.2567 2.81776 8.925 2.71904V1.8C8.925 1.01299 8.287 0.375 7.5 0.375C6.71299 0.375 6.075 1.01299 6.075 1.8V2.71904C5.7433 2.81776 5.42607 2.95005 5.12723 3.11198L4.47712 2.46187C3.92063 1.90537 3.01837 1.90537 2.46187 2.46187C1.90537 3.01837 1.90537 3.92063 2.46187 4.47712L3.11198 5.12724C2.95005 5.42607 2.81776 5.7433 2.71904 6.075H1.8C1.01299 6.075 0.375 6.713 0.375 7.5C0.375 8.28701 1.01299 8.925 1.8 8.925H2.71904C2.81776 9.2567 2.95005 9.57393 3.11198 9.87276L2.46186 10.5229C1.90536 11.0794 1.90536 11.9816 2.46186 12.5381C3.01835 13.0946 3.92061 13.0946 4.47711 12.5381L5.12723 11.888C5.42607 12.0499 5.7433 12.1822 6.075 12.281V13.2ZM7.49999 9.63749C8.6805 9.63749 9.63749 8.6805 9.63749 7.49999C9.63749 6.31948 8.6805 5.36249 7.49999 5.36249C6.31948 5.36249 5.36249 6.31948 5.36249 7.49999C5.36249 8.6805 6.31948 9.63749 7.49999 9.63749Z" fill="#0079BD"/>
</svg>
