<svg width="15" height="15" viewBox="0 0 15 15" fill="none" xmlns="http://www.w3.org/2000/svg">
<path d="M7.75597 1.14973L7.83582 0.622544L7.83582 0.622544L7.75597 1.14973ZM7.30654 1.14973L7.38639 1.67692L7.38639 1.67692L7.30654 1.14973ZM6.28586 3.17602L6.4322 3.68875C6.66118 3.6234 6.81907 3.41414 6.81907 3.17602L6.28586 3.17602ZM5.33251 3.57127L4.95548 3.94831C5.12391 4.11674 5.38362 4.15302 5.59176 4.03721L5.33251 3.57127ZM4.73872 2.97749L5.11575 2.60046L5.11575 2.60046L4.73872 2.97749ZM3.17773 2.85994L3.49405 3.28919L3.49405 3.28919L3.17773 2.85994ZM2.85994 3.17774L3.28918 3.49405L3.28918 3.49405L2.85994 3.17774ZM2.97749 4.73873L3.35452 4.3617L2.97749 4.73873ZM3.57127 5.33252L4.0372 5.59177C4.15302 5.38363 4.11673 5.12392 3.9483 4.95549L3.57127 5.33252ZM3.17602 6.28587V6.81907C3.41414 6.81907 3.6234 6.66118 3.68875 6.43221L3.17602 6.28587ZM1.14973 7.30654L1.67692 7.38639L1.67692 7.38639L1.14973 7.30654ZM1.14973 7.75597L1.67692 7.67612L1.67692 7.67612L1.14973 7.75597ZM3.17602 8.77664L3.68875 8.6303C3.6234 8.40132 3.41414 8.24343 3.17602 8.24343V8.77664ZM3.57127 9.72999L3.9483 10.107C4.11673 9.9386 4.15302 9.67888 4.0372 9.47074L3.57127 9.72999ZM2.97749 10.3238L3.35452 10.7008L3.35452 10.7008L2.97749 10.3238ZM2.85994 11.8848L3.28919 11.5685L3.28919 11.5685L2.85994 11.8848ZM3.17774 12.2026L3.49406 11.7733L3.49405 11.7733L3.17774 12.2026ZM4.73872 12.085L5.11576 12.4621L5.11576 12.4621L4.73872 12.085ZM5.33251 11.4912L5.59176 11.0253C5.38362 10.9095 5.12391 10.9458 4.95547 11.1142L5.33251 11.4912ZM6.28586 11.8865H6.81907C6.81907 11.6484 6.66118 11.4391 6.4322 11.3738L6.28586 11.8865ZM6.28586 12.7259L6.81907 12.7259V12.7259H6.28586ZM7.30654 13.9128L7.38639 13.3856L7.38639 13.3856L7.30654 13.9128ZM7.75597 13.9128L7.67612 13.3856L7.67612 13.3856L7.75597 13.9128ZM8.77663 11.8865L8.6303 11.3738C8.40132 11.4391 8.24343 11.6484 8.24343 11.8865H8.77663ZM9.72999 11.4912L10.107 11.1142C9.9386 10.9458 9.67888 10.9095 9.47074 11.0253L9.72999 11.4912ZM10.3238 12.085L10.7008 11.708L10.7008 11.708L10.3238 12.085ZM11.8848 12.2026L11.5685 11.7733L11.5685 11.7733L11.8848 12.2026ZM12.2026 11.8848L11.7733 11.5685L11.7733 11.5685L12.2026 11.8848ZM12.085 10.3238L12.4621 9.94676L12.4621 9.94675L12.085 10.3238ZM11.4912 9.73001L11.0253 9.47075C10.9095 9.67889 10.9458 9.93861 11.1142 10.107L11.4912 9.73001ZM11.8865 8.77664V8.24343C11.6484 8.24343 11.4391 8.40132 11.3738 8.6303L11.8865 8.77664ZM13.9128 7.75597L14.44 7.83582L14.44 7.83582L13.9128 7.75597ZM13.9128 7.30654L14.44 7.2267L14.44 7.22669L13.9128 7.30654ZM11.8865 6.28587L11.3738 6.43221C11.4391 6.66118 11.6484 6.81907 11.8865 6.81907V6.28587ZM11.4912 5.33251L11.1142 4.95548C10.9458 5.12391 10.9095 5.38362 11.0253 5.59177L11.4912 5.33251ZM12.085 4.73872L12.4621 5.11575L12.4621 5.11575L12.085 4.73872ZM12.2026 3.17774L12.6318 2.86142L12.6318 2.86142L12.2026 3.17774ZM11.8848 2.85994L11.5685 3.28918L11.5685 3.28919L11.8848 2.85994ZM10.3238 2.97749L9.94675 2.60046L9.94675 2.60046L10.3238 2.97749ZM9.72999 3.57127L9.47074 4.0372C9.67888 4.15302 9.9386 4.11673 10.107 3.9483L9.72999 3.57127ZM8.77664 3.17602H8.24343C8.24343 3.41414 8.40132 3.6234 8.6303 3.68875L8.77664 3.17602ZM7.67612 1.67692C8.00232 1.72633 8.24343 2.00672 8.24343 2.33663H9.30984C9.30984 1.47943 8.68336 0.750914 7.83582 0.622544L7.67612 1.67692ZM7.38639 1.67692C7.48242 1.66238 7.58009 1.66238 7.67612 1.67692L7.83582 0.622544C7.63393 0.591965 7.42858 0.591965 7.22669 0.622543L7.38639 1.67692ZM6.81907 2.33664C6.81907 2.00672 7.06019 1.72633 7.38639 1.67692L7.22669 0.622543C6.37915 0.750913 5.75266 1.47943 5.75266 2.33664H6.81907ZM6.81907 3.17602V2.33664H5.75266V3.17602H6.81907ZM5.59176 4.03721C5.85517 3.89064 6.13674 3.77308 6.4322 3.68875L6.13952 2.6633C5.7644 2.77036 5.40714 2.91956 5.07325 3.10534L5.59176 4.03721ZM4.36169 3.35452L4.95548 3.94831L5.70954 3.19424L5.11575 2.60046L4.36169 3.35452ZM3.49405 3.28919C3.75964 3.09347 4.1284 3.12123 4.36169 3.35452L5.11575 2.60046C4.50962 1.99432 3.55149 1.92217 2.86142 2.4307L3.49405 3.28919ZM3.28918 3.49405C3.3468 3.41587 3.41587 3.3468 3.49405 3.28919L2.86142 2.4307C2.69704 2.55184 2.55184 2.69704 2.4307 2.86142L3.28918 3.49405ZM3.35452 4.3617C3.12123 4.12841 3.09346 3.75965 3.28918 3.49405L2.4307 2.86142C1.92217 3.55149 1.99431 4.50963 2.60045 5.11577L3.35452 4.3617ZM3.9483 4.95549L3.35452 4.3617L2.60045 5.11577L3.19424 5.70955L3.9483 4.95549ZM3.68875 6.43221C3.77308 6.13674 3.89063 5.85518 4.0372 5.59177L3.10534 5.07326C2.91955 5.40715 2.77036 5.7644 2.66329 6.13953L3.68875 6.43221ZM2.33664 6.81907H3.17602V5.75266H2.33664V6.81907ZM1.67692 7.38639C1.72633 7.06019 2.00672 6.81907 2.33664 6.81907V5.75266C1.47943 5.75266 0.750915 6.37915 0.622544 7.22669L1.67692 7.38639ZM1.67692 7.67612C1.66238 7.58009 1.66238 7.48242 1.67692 7.38639L0.622544 7.22669C0.591964 7.42858 0.591964 7.63393 0.622544 7.83582L1.67692 7.67612ZM2.33664 8.24343C2.00672 8.24343 1.72633 8.00232 1.67692 7.67612L0.622544 7.83582C0.750915 8.68336 1.47943 9.30984 2.33664 9.30984V8.24343ZM3.17602 8.24343H2.33664V9.30984H3.17602V8.24343ZM4.0372 9.47074C3.89063 9.20733 3.77308 8.92577 3.68875 8.6303L2.66329 8.92298C2.77036 9.2981 2.91955 9.65536 3.10534 9.98925L4.0372 9.47074ZM3.35452 10.7008L3.9483 10.107L3.19424 9.35296L2.60046 9.94674L3.35452 10.7008ZM3.28919 11.5685C3.09346 11.3029 3.12123 10.9341 3.35452 10.7008L2.60046 9.94674C1.99432 10.5529 1.92217 11.511 2.4307 12.2011L3.28919 11.5685ZM3.49405 11.7733C3.41587 11.7157 3.34681 11.6466 3.28919 11.5685L2.4307 12.2011C2.55184 12.3655 2.69704 12.5107 2.86142 12.6318L3.49405 11.7733ZM4.36169 11.708C4.12841 11.9413 3.75965 11.969 3.49406 11.7733L2.86142 12.6318C3.55149 13.1403 4.50962 13.0682 5.11576 12.4621L4.36169 11.708ZM4.95547 11.1142L4.36169 11.708L5.11576 12.4621L5.70954 11.8683L4.95547 11.1142ZM6.4322 11.3738C6.13674 11.2894 5.85517 11.1719 5.59176 11.0253L5.07325 11.9572C5.40714 12.143 5.7644 12.2921 6.13952 12.3992L6.4322 11.3738ZM6.81907 12.7259V11.8865H5.75266V12.7259H6.81907ZM7.38639 13.3856C7.06019 13.3362 6.81907 13.0558 6.81907 12.7259L5.75266 12.7259C5.75266 13.5831 6.37915 14.3116 7.22669 14.44L7.38639 13.3856ZM7.67612 13.3856C7.58009 13.4001 7.48242 13.4001 7.38639 13.3856L7.22669 14.44C7.42858 14.4705 7.63393 14.4705 7.83582 14.44L7.67612 13.3856ZM8.24343 12.7259C8.24343 13.0558 8.00231 13.3362 7.67612 13.3856L7.83582 14.44C8.68336 14.3116 9.30984 13.5831 9.30984 12.7259H8.24343ZM8.24343 11.8865V12.7259H9.30984V11.8865H8.24343ZM9.47074 11.0253C9.20733 11.1719 8.92576 11.2894 8.6303 11.3738L8.92297 12.3992C9.2981 12.2922 9.65536 12.143 9.98925 11.9572L9.47074 11.0253ZM10.7008 11.708L10.107 11.1142L9.35296 11.8683L9.94674 12.4621L10.7008 11.708ZM11.5685 11.7733C11.3029 11.969 10.9341 11.9413 10.7008 11.708L9.94674 12.4621C10.5529 13.0682 11.511 13.1403 12.2011 12.6318L11.5685 11.7733ZM11.7733 11.5685C11.7157 11.6466 11.6466 11.7157 11.5685 11.7733L12.2011 12.6318C12.3655 12.5107 12.5107 12.3655 12.6318 12.2011L11.7733 11.5685ZM11.708 10.7008C11.9413 10.9341 11.969 11.3029 11.7733 11.5685L12.6318 12.2011C13.1403 11.511 13.0682 10.5529 12.4621 9.94676L11.708 10.7008ZM11.1142 10.107L11.708 10.7008L12.4621 9.94675L11.8683 9.35297L11.1142 10.107ZM11.3738 8.6303C11.2894 8.92577 11.1719 9.20734 11.0253 9.47075L11.9572 9.98926C12.143 9.65536 12.2922 9.29811 12.3992 8.92298L11.3738 8.6303ZM12.7259 8.24343H11.8865V9.30984H12.7259V8.24343ZM13.3856 7.67612C13.3362 8.00232 13.0558 8.24343 12.7259 8.24343V9.30984C13.5831 9.30984 14.3116 8.68336 14.44 7.83582L13.3856 7.67612ZM13.3856 7.38639C13.4001 7.48242 13.4001 7.58009 13.3856 7.67612L14.44 7.83582C14.4705 7.63393 14.4705 7.42858 14.44 7.2267L13.3856 7.38639ZM12.7259 6.81907C13.0558 6.81907 13.3362 7.06019 13.3856 7.38639L14.44 7.22669C14.3116 6.37915 13.5831 5.75266 12.7259 5.75266V6.81907ZM11.8865 6.81907H12.7259V5.75266H11.8865V6.81907ZM11.0253 5.59177C11.1719 5.85517 11.2894 6.13674 11.3738 6.43221L12.3992 6.13953C12.2921 5.7644 12.143 5.40714 11.9572 5.07325L11.0253 5.59177ZM11.708 4.36169L11.1142 4.95548L11.8683 5.70954L12.4621 5.11575L11.708 4.36169ZM11.7733 3.49405C11.969 3.75965 11.9413 4.1284 11.708 4.36169L12.4621 5.11575C13.0682 4.50962 13.1403 3.55149 12.6318 2.86142L11.7733 3.49405ZM11.5685 3.28919C11.6466 3.3468 11.7157 3.41587 11.7733 3.49405L12.6318 2.86142C12.5107 2.69704 12.3655 2.55184 12.2011 2.4307L11.5685 3.28919ZM10.7008 3.35452C10.9341 3.12123 11.3029 3.09346 11.5685 3.28918L12.2011 2.4307C11.511 1.92217 10.5529 1.99432 9.94675 2.60046L10.7008 3.35452ZM10.107 3.9483L10.7008 3.35452L9.94675 2.60046L9.35296 3.19424L10.107 3.9483ZM8.6303 3.68875C8.92576 3.77308 9.20733 3.89063 9.47074 4.0372L9.98925 3.10534C9.65536 2.91955 9.2981 2.77036 8.92297 2.66329L8.6303 3.68875ZM8.24343 2.33663V3.17602H9.30984V2.33663H8.24343ZM7.53125 8.77539C6.84413 8.77539 6.28711 8.21837 6.28711 7.53125H5.2207C5.2207 8.80733 6.25517 9.8418 7.53125 9.8418V8.77539ZM8.77539 7.53125C8.77539 8.21837 8.21837 8.77539 7.53125 8.77539V9.8418C8.80733 9.8418 9.8418 8.80733 9.8418 7.53125H8.77539ZM7.53125 6.28711C8.21837 6.28711 8.77539 6.84413 8.77539 7.53125H9.8418C9.8418 6.25517 8.80733 5.2207 7.53125 5.2207V6.28711ZM7.53125 5.2207C6.25517 5.2207 5.2207 6.25517 5.2207 7.53125H6.28711C6.28711 6.84413 6.84413 6.28711 7.53125 6.28711V5.2207Z" fill="#575757"/>
</svg>
