<svg width="15" height="15" viewBox="0 0 15 15" fill="none" xmlns="http://www.w3.org/2000/svg">
<path d="M4.211 5.76045L4.95057 6.50002L6.42971 5.02088M8.27863 6.13024H10.8671M4.211 9.4583L4.95057 10.1979L6.42971 8.71873M8.27863 9.82808H10.8671M1.3915 9.77743C1.057 8.35142 1.057 6.86734 1.3915 5.44132C1.85467 3.46675 3.39644 1.92498 5.37101 1.46181C6.79703 1.12731 8.2811 1.12731 9.70712 1.46181C11.6817 1.92498 13.2235 3.46675 13.6866 5.44133C14.0211 6.86734 14.0211 8.35141 13.6866 9.77743C13.2235 11.752 11.6817 13.2938 9.70711 13.7569C8.2811 14.0914 6.79703 14.0914 5.37101 13.7569C3.39644 13.2938 1.85467 11.752 1.3915 9.77743Z" stroke="#575757" stroke-width="1.06641" stroke-linecap="round" stroke-linejoin="round"/>
</svg>
