<svg width="15" height="15" viewBox="0 0 15 15" fill="none" xmlns="http://www.w3.org/2000/svg">
<path fill-rule="evenodd" clip-rule="evenodd" d="M9.85146 0.647095C8.30481 0.284301 6.6952 0.284302 5.14855 0.647095C2.915 1.17102 1.17102 2.91499 0.647096 5.14855C0.284301 6.6952 0.284301 8.30481 0.647096 9.85146C1.17102 12.085 2.915 13.829 5.14855 14.3529C6.6952 14.7157 8.30481 14.7157 9.85145 14.3529C12.085 13.829 13.829 12.085 14.3529 9.85145C14.7157 8.30481 14.7157 6.6952 14.3529 5.14855C13.829 2.915 12.085 1.17102 9.85146 0.647095ZM6.69914 4.51158C6.88464 4.69708 6.88464 4.99783 6.69914 5.18333L5.18343 6.69903C5.09435 6.78811 4.97354 6.83816 4.84756 6.83816C4.72158 6.83816 4.60076 6.78811 4.51168 6.69903L3.75383 5.94118C3.56833 5.75568 3.56833 5.45493 3.75383 5.26943C3.93933 5.08393 4.24008 5.08393 4.42558 5.26943L4.84756 5.69141L6.02739 4.51158C6.21289 4.32608 6.51364 4.32608 6.69914 4.51158ZM7.78289 5.98423C7.78289 5.7219 7.99556 5.50923 8.25789 5.50923H10.9104C11.1727 5.50923 11.3854 5.7219 11.3854 5.98423C11.3854 6.24657 11.1727 6.45923 10.9104 6.45923H8.25789C7.99556 6.45923 7.78289 6.24657 7.78289 5.98423ZM6.69914 8.30084C6.88464 8.48634 6.88464 8.78709 6.69914 8.97259L5.18343 10.4883C5.09435 10.5774 4.97354 10.6274 4.84756 10.6274C4.72158 10.6274 4.60076 10.5774 4.51168 10.4883L3.75383 9.73044C3.56833 9.54494 3.56833 9.24419 3.75383 9.05869C3.93933 8.87319 4.24008 8.87319 4.42558 9.05869L4.84756 9.48067L6.02739 8.30084C6.21289 8.11534 6.51364 8.11534 6.69914 8.30084ZM7.78289 9.77349C7.78289 9.51116 7.99556 9.29849 8.25789 9.29849H10.9104C11.1727 9.29849 11.3854 9.51116 11.3854 9.77349C11.3854 10.0358 11.1727 10.2485 10.9104 10.2485H8.25789C7.99556 10.2485 7.78289 10.0358 7.78289 9.77349Z" fill="#0079BD"/>
</svg>
