<svg width="19" height="23" viewBox="0 0 19 23" fill="none" xmlns="http://www.w3.org/2000/svg">
<path d="M7.25 12.2969V16.6656M11.75 12.2969V16.6656M1.96027 12.1943C2.15414 10.9911 2.68281 9.89538 3.45469 9.00238C7.45127 9.7171 11.5487 9.7171 15.5453 9.00238C16.3172 9.89538 16.8459 10.9911 17.0397 12.1943L17.082 12.4568C17.2751 13.6551 17.202 14.8797 16.8675 16.0483L16.7352 16.5108C15.9969 19.0904 13.7968 21.0283 11.0805 21.4913C10.0348 21.6696 8.96512 21.6696 7.91941 21.4913C5.20314 21.0283 3.00303 19.0904 2.26479 16.5108L2.13244 16.0482C1.79801 14.8797 1.72489 13.6551 1.91797 12.4569L1.96027 12.1943ZM15.7001 8.97433C11.603 9.72645 7.39699 9.72645 3.29988 8.97433C2.32839 8.79599 1.625 7.97189 1.625 7.01202V6.84736C1.625 5.63466 2.63762 4.65157 3.88676 4.65157H15.1132C16.3624 4.65157 17.375 5.63466 17.375 6.84736V7.01202C17.375 7.97189 16.6716 8.79599 15.7001 8.97433ZM6.38191 3.39768C6.2123 3.79521 6.125 4.22128 6.125 4.65157L12.875 4.65157C12.875 4.22128 12.7877 3.79521 12.6181 3.39768C12.4485 3.00015 12.1999 2.63894 11.8865 2.33468C11.5731 2.03043 11.201 1.78908 10.7916 1.62441C10.3821 1.45975 9.94321 1.375 9.5 1.375C9.05679 1.375 8.61792 1.45975 8.20844 1.62441C7.79897 1.78908 7.42691 2.03043 7.11351 2.33468C6.80012 2.63894 6.55152 3.00015 6.38191 3.39768Z" stroke="#FF5656" stroke-width="1.6875" stroke-linecap="round"/>
</svg>
