<svg width="449" height="286" viewBox="0 0 449 286" fill="none" xmlns="http://www.w3.org/2000/svg">
<path d="M8.00016 57.9245H441.125V250.959C441.125 265.893 431.577 278 419.798 278H29.3269C17.5484 278 8.00016 265.893 8.00016 250.959V57.9245Z" fill="white"/>
<path d="M8.00016 35.0407C8.00016 20.1065 17.5485 8 29.3269 8H419.798C431.577 8 441.125 20.1065 441.125 35.0407V88.3571H222.554H8L8.00016 35.0407Z" fill="url(#paint0_linear_542_316)"/>
<path d="M4.38409 57.9245L4.38393 88.3571L4.38392 91.9732H4.38409V250.959C4.38409 267.044 14.7985 281.616 29.3269 281.616H419.798C434.327 281.616 444.741 267.044 444.741 250.959V91.9732V88.3571V57.9245V54.3085V35.0407C444.741 18.9565 434.327 4.38393 419.798 4.38393H29.3269C14.7985 4.38393 4.38409 18.9565 4.38409 35.0407V54.3085V57.9245Z" stroke="white" stroke-opacity="0.15" stroke-width="7.23214"/>
<defs>
<linearGradient id="paint0_linear_542_316" x1="9.64687" y1="64.1743" x2="441.138" y2="63.3897" gradientUnits="userSpaceOnUse">
<stop stop-color="#45C6E0"/>
<stop offset="1" stop-color="#C2D7BD"/>
</linearGradient>
</defs>
</svg>
